<svg version="1.2" xmlns="http://www.w3.org/2000/svg" viewBox="0 0 117 37" width="117" height="37"><style>.a{fill:#fff}</style><path class="a" d="m33.3 26.4l-1.1 6.1c-5 2.7-9.5 4.3-15.4 4.5-10.1 0.3-16.8-5.6-16.8-16 0-12.1 8.3-20.4 20.7-20.3 6 0.1 10.2 2.1 12 3.3l-3.3 7.6c-1.5-0.7-4.4-1.2-6.7-1.2-6.1 0-9.1 4-9.3 9.1-0.2 5.3 3.1 8.8 7.9 9.3 6.5 0.6 10.5-1.6 12-2.4zm22.5 1.9c-0.3 1.8 0.4 2.9 4.6 1.1l1.6 4.5c-5.3 2.4-8.5 3.1-10.7 3.1-3.2 0-5.1-1.3-5.8-3.2-2.3 2.1-4.8 3.2-7.6 3.2-4.5 0-7.2-3.3-6.5-7.8l2.1-15.2h10.3l-1.9 12.8c-0.1 1.2 0.6 2.1 1.7 2.1 1 0 1.9-0.9 2.1-2.1l1.8-12.8h10.3zm20.3-12.1l1.6-11h10.2l-3.2 23.3c-0.3 1.6 0.5 2.9 4.7 0.6l1.7 4.7c-1.7 1-5.8 3.3-10.9 3.2-3.1 0-5.1-1.4-5.8-3.5-1.8 2.1-3.9 3.5-7.2 3.5-4.8 0-7.5-4.4-7.5-9.9 0-7.7 4.9-13.6 11.1-13.6 2.5 0 4.1 1 5.3 2.7zm-0.3 8.4c0-1.8-1-3.2-2.5-3.2-2 0-3.6 2.1-3.6 4.4 0 1.8 0.9 3.2 2.5 3.2 2 0 3.6-2.1 3.6-4.4zm29.7-8.4l0.3-2.2h10.2l-2 14.5c-0.2 1.6 0.8 1.9 2.4 1.5l-0.4 4.4q-3.3 2.6-6.4 2.6c-3.2 0-5.2-1.4-5.8-3.5-1.8 2.1-4.1 3.5-7.3 3.5-4.7 0-7.5-4.4-7.5-9.9 0-7.6 5-13.6 11.2-13.6 2.4 0 4.1 1 5.3 2.7zm-0.4 8.4c0-1.8-1-3.2-2.5-3.2-2 0-3.5 2.1-3.5 4.4 0 1.8 0.9 3.2 2.5 3.2 1.9 0 3.5-2.1 3.5-4.4z"/></svg>